<svg width="48" height="48" viewBox="0 0 48 48" fill="none" xmlns="http://www.w3.org/2000/svg">
<circle cx="24" cy="20" r="10" stroke="#1E84B5" stroke-width="2" fill="none"/>
<path d="M24 12C20.69 12 18 14.69 18 18C18 19.5 18.5 20.8 19.5 21.8L24 26L28.5 21.8C29.5 20.8 30 19.5 30 18C30 14.69 27.31 12 24 12Z" fill="#1E84B5" opacity="0.2"/>
<path d="M24 14C21.79 14 20 15.79 20 18C20 19.1 20.4 20.1 21 20.9L24 24L27 20.9C27.6 20.1 28 19.1 28 18C28 15.79 26.21 14 24 14Z" stroke="#1E84B5" stroke-width="2" fill="none"/>
<circle cx="24" cy="18" r="1.5" fill="#0E384C"/>
<rect x="20" y="30" width="8" height="10" rx="1" fill="#1E84B5" opacity="0.2"/>
<path d="M22 30V34M26 30V34" stroke="#0E384C" stroke-width="2" stroke-linecap="round"/>
</svg>
