<svg width="48" height="48" viewBox="0 0 48 48" fill="none" xmlns="http://www.w3.org/2000/svg">
<circle cx="24" cy="24" r="18" stroke="#1E84B5" stroke-width="2" fill="none"/>
<path d="M24 12C18.48 12 14 16.48 14 22C14 24.5 15 26.8 16.5 28.5L24 36L31.5 28.5C33 26.8 34 24.5 34 22C34 16.48 29.52 12 24 12Z" fill="#1E84B5" opacity="0.2"/>
<path d="M24 18C20.69 18 18 20.69 18 24C18 25.5 18.5 26.8 19.5 27.8L24 32L28.5 27.8C29.5 26.8 30 25.5 30 24C30 20.69 27.31 18 24 18Z" stroke="#1E84B5" stroke-width="2" fill="none"/>
<circle cx="24" cy="24" r="2" fill="#0E384C"/>
<path d="M20 20L22 22M28 20L26 22M20 28L22 26M28 28L26 26" stroke="#1E84B5" stroke-width="1.5" stroke-linecap="round"/>
</svg>
